<svg width="33" height="21" viewBox="0 0 33 21" fill="none" xmlns="http://www.w3.org/2000/svg">
<path d="M1.64978 16.7111C1.5051 16.4223 1.31219 15.9609 1.19304 15.6192C0.498007 13.6185 0.466801 11.5473 1.0512 9.56073C1.69517 7.38038 2.92637 5.7143 4.51786 4.86189C6.51786 3.79461 8.72779 4.00243 10.6455 5.4149C11.8625 6.2814 12.725 7.6199 13.3803 9.51494C13.4625 9.75798 13.5363 10.0151 13.6101 10.237L1.64978 16.7111ZM5.64411 8.07781C4.22283 8.83512 3.49092 10.4906 3.64411 12.4279L9.65829 9.21201C8.62283 7.70444 7.27815 7.20426 5.64411 8.07781V8.07781ZM10.4072 15.0732C10.4044 15.0732 10.4044 15.0768 10.4044 15.0768L10.2796 14.9711C9.91928 15.6932 9.36042 16.2814 8.65404 16.6618C7.30936 17.3874 6.06396 17.2007 5.16751 16.225L5.08524 16.38C5.08524 16.38 5.08524 16.3765 5.0824 16.3765L3.55616 19.212C3.9363 19.5396 4.34198 19.8143 4.76751 20.0362C6.45262 20.9063 8.17744 20.864 9.87673 19.9482C11.1051 19.286 12.0696 18.2786 12.7278 17L10.4072 15.0732ZM17.7888 0.691406V16.4505L19.7633 17.4438L18.6427 20.6914L16.464 19.5642C15.976 19.3001 15.6413 18.8985 15.3916 18.4441C15.1505 17.9827 14.9718 17.3452 14.9718 16.4927V0.691406H17.7888ZM22.9008 12.4385C22.9008 11.0965 23.3803 9.89183 24.1349 9.07464L22.1094 6.27084C20.7363 7.77841 19.8711 9.97989 19.8711 12.4315C19.8682 14.8865 20.7335 17.0915 22.1037 18.5991L24.1264 15.7953C23.3746 14.9746 22.9008 13.777 22.9008 12.4385V12.4385ZM26.498 16.9084C26.1008 16.9084 25.715 16.8238 25.3576 16.6759L24.3902 20.2441C25.0512 20.5188 25.7576 20.6703 26.4952 20.6703C29.7008 20.6738 32.376 17.8489 32.9973 14.0975L30.0242 13.3437C29.6867 15.3832 28.237 16.9119 26.498 16.9084V16.9084ZM26.5065 4.20673C25.7718 4.20673 25.0654 4.35467 24.4044 4.62589L25.3633 8.19757C25.7235 8.04963 26.1065 7.96862 26.5037 7.96862C28.2455 7.97214 29.698 9.50789 30.0271 11.5509L33.0001 10.8041C32.3902 7.04576 29.715 4.21025 26.5065 4.20673V4.20673Z" fill="white"/>
</svg>
